<svg version="1.1" id="Layer_1" xmlns="http://www.w3.org/2000/svg" xmlns:xlink="http://www.w3.org/1999/xlink" x="0px" y="0px" viewBox="0 0 180 85" enable-background="new 0 0 180 85" xml:space="preserve">
		<g>
			<path fill="#868685" d="M69.562,78.163c0,0,0.746,0.755,1.788,0.755c0.656,0,1.211-0.369,1.211-1.033
				c0-1.521-3.396-1.192-3.396-3.348c0-1.092,0.943-1.958,2.265-1.958c1.301,0,1.987,0.706,1.987,0.706l-0.447,0.812
				c0,0-0.646-0.604-1.54-0.604c-0.745,0-1.272,0.466-1.272,1.024c0,1.451,3.398,1.062,3.398,3.336c0,1.084-0.834,1.977-2.226,1.977
				c-1.49,0-2.325-0.924-2.325-0.924L69.562,78.163z"></path>
			<polygon fill="#868685" points="76.958,73.555 74.556,73.555 74.556,72.699 80.344,72.699 80.344,73.555 77.942,73.555 
				77.942,79.712 76.958,79.712 	"></polygon>
			<path fill="#868685" d="M84.231,77.348h0.974v0.297c0,0.955,0.557,1.283,1.113,1.283c0.547,0,1.094-0.316,1.094-1.242v-4.131
				h-1.769v-0.855h2.75v4.996c0,1.519-1.061,2.135-2.083,2.135c-1.025,0-2.078-0.624-2.078-2.135V77.348z"></path>
			<path fill="#868685" d="M94.15,77.695h-2.643l-0.694,2.017H89.8l2.524-7.013h1.032l2.521,7.013h-1.023L94.15,77.695z M92.83,73.661
				c0,0-0.16,0.638-0.279,0.995l-0.783,2.224h2.126l-0.776-2.224c-0.119-0.357-0.268-0.995-0.268-0.995H92.83z"></path>
			<path fill="#868685" d="M97.751,72.699h1.031l1.611,3.795c0.16,0.386,0.348,0.944,0.348,0.944h0.019c0,0,0.188-0.559,0.348-0.944
				l1.609-3.795h1.034l0.565,7.013h-0.974l-0.347-4.419c-0.031-0.43-0.012-1.035-0.012-1.035h-0.02c0,0-0.207,0.646-0.378,1.035
				l-1.398,3.157h-0.875l-1.39-3.157c-0.159-0.377-0.379-1.054-0.379-1.054h-0.019c0,0,0.009,0.624-0.021,1.054l-0.338,4.419h-0.983
				L97.751,72.699z"></path>
			<polygon fill="#868685" points="106.496,72.699 110.568,72.699 110.568,73.555 107.478,73.555 107.478,75.748 109.993,75.748 
				109.993,76.604 107.478,76.604 107.478,78.856 110.738,78.856 110.738,79.712 106.496,79.712 	"></polygon>
			<path fill="#868685" d="M112.698,78.163c0,0,0.745,0.755,1.788,0.755c0.656,0,1.212-0.369,1.212-1.033
				c0-1.521-3.396-1.192-3.396-3.348c0-1.092,0.943-1.958,2.266-1.958c1.3,0,1.985,0.706,1.985,0.706l-0.447,0.812
				c0,0-0.646-0.604-1.538-0.604c-0.746,0-1.271,0.466-1.271,1.024c0,1.451,3.395,1.062,3.395,3.336c0,1.084-0.835,1.977-2.224,1.977
				c-1.49,0-2.326-0.924-2.326-0.924L112.698,78.163z"></path>
			<polygon fill="#868685" points="118.575,72.581 119.508,72.581 118.864,74.518 118.146,74.518 	"></polygon>
			<path fill="#868685" d="M121.285,78.163c0,0,0.744,0.755,1.789,0.755c0.652,0,1.21-0.369,1.21-1.033
				c0-1.521-3.398-1.192-3.398-3.348c0-1.092,0.945-1.958,2.266-1.958c1.302,0,1.986,0.706,1.986,0.706l-0.446,0.812
				c0,0-0.646-0.604-1.54-0.604c-0.743,0-1.271,0.466-1.271,1.024c0,1.451,3.396,1.062,3.396,3.336c0,1.084-0.834,1.977-2.225,1.977
				c-1.488,0-2.324-0.924-2.324-0.924L121.285,78.163z"></path>
			<polygon fill="#868685" points="130.228,72.699 131.212,72.699 131.212,75.779 134.848,75.779 134.848,72.699 135.83,72.699 
				135.83,79.712 134.848,79.712 134.848,76.633 131.212,76.633 131.212,79.712 130.228,79.712 	"></polygon>
			<path fill="#868685" d="M141.357,72.581c2.026,0,3.595,1.56,3.595,3.575c0,2.066-1.568,3.674-3.595,3.674
				c-2.027,0-3.606-1.607-3.606-3.674C137.751,74.141,139.33,72.581,141.357,72.581 M141.357,78.928c1.429,0,2.583-1.191,2.583-2.771
				c0-1.531-1.154-2.682-2.583-2.682c-1.43,0-2.594,1.15-2.594,2.682C138.764,77.736,139.928,78.928,141.357,78.928"></path>
			<path fill="#868685" d="M146.893,78.163c0,0,0.745,0.755,1.788,0.755c0.656,0,1.211-0.369,1.211-1.033
				c0-1.521-3.396-1.192-3.396-3.348c0-1.092,0.944-1.958,2.265-1.958c1.302,0,1.987,0.706,1.987,0.706l-0.447,0.812
				c0,0-0.646-0.604-1.54-0.604c-0.745,0-1.271,0.466-1.271,1.024c0,1.451,3.396,1.062,3.396,3.336c0,1.084-0.834,1.977-2.225,1.977
				c-1.488,0-2.323-0.924-2.323-0.924L146.893,78.163z"></path>
			<path fill="#868685" d="M152.788,72.699h2.562c1.281,0,2.206,0.865,2.206,2.195s-0.925,2.225-2.206,2.225h-1.579v2.593h-0.983
				V72.699z M155.191,76.264c0.844,0,1.361-0.523,1.361-1.369c0-0.845-0.518-1.34-1.352-1.34h-1.43v2.709H155.191z"></path>
			<rect x="159.311" y="72.699" fill="#868685" width="0.982" height="7.013"></rect>
			<polygon fill="#868685" points="164.192,73.555 161.791,73.555 161.791,72.699 167.58,72.699 167.58,73.555 165.176,73.555 
				165.176,79.712 164.192,79.712 	"></polygon>
			<path fill="#868685" d="M172.126,77.695h-2.643l-0.694,2.017h-1.015l2.523-7.013h1.033l2.523,7.013h-1.024L172.126,77.695z
				 M170.805,73.661c0,0-0.157,0.638-0.277,0.995l-0.785,2.224h2.126l-0.775-2.224c-0.118-0.357-0.267-0.995-0.267-0.995H170.805z"></path>
			<polygon fill="#868685" points="175.379,72.699 176.363,72.699 176.363,78.856 179.5,78.856 179.5,79.712 175.379,79.712 	"></polygon>
			<path fill="#1C1C1A" d="M79.622,30.738h4.391v1.827c-0.206,0.188-0.635,0.549-1.256,0.919c-0.906,0.539-2.191,1.07-3.72,1.07
				c-3.833-0.022-6.809-2.814-6.829-7.322c0.035-3.923,2.375-6.987,7.013-7.015c1.64-0.002,3.018,0.492,3.988,0.991
				c0.97,0.496,1.496,0.98,1.5,0.976l0.442,0.393l2.538-3.804l-0.298-0.298c-0.053-0.055-2.954-2.926-8.509-2.926
				c-6.781,0.012-11.792,5.184-11.805,11.805c0.011,7.141,5.21,11.855,11.25,11.868c6.784-0.011,10.16-4.86,10.198-4.913l0.091-0.135
				l0.003-7.89h-8.996V30.738z M113.639,15.917h-5.007v14.524c-0.041,2.706-1.625,4.062-4.36,4.112
				c-2.736-0.05-4.287-1.405-4.33-4.083V15.917h-5.008V30.47c-0.003,2.576,0.938,4.789,2.602,6.333
				c1.658,1.548,4.008,2.419,6.767,2.417h0.01c2.74,0,5.079-0.874,6.731-2.417c1.655-1.544,2.598-3.757,2.593-6.333L113.639,15.917z
				 M126.104,15.919h-5.008v22.932h5.008V15.919z M141.849,15.919h-7.983v22.93h7.993c3.474,0,6.405-1.053,8.463-3.042
				c2.062-1.99,3.211-4.892,3.209-8.453c0.002-3.561-1.146-6.449-3.211-8.422C148.26,16.956,145.323,15.917,141.849,15.919
				 M141.631,34.399h-2.756V20.371h2.756c4.164,0.051,6.717,2.329,6.766,6.984C148.343,32.079,145.856,34.343,141.631,34.399
				 M177.625,34.397h-12.712v-4.864h10.458v-4.452h-10.459v-4.709h12.219v-4.454h-17.226v22.933h17.72V34.397z M85.012,58.679
				c0,0.002-0.588,0.643-1.648,1.303c-1.062,0.661-2.56,1.309-4.33,1.309c-4.254-0.006-6.838-3.375-6.86-7.321
				c0.028-3.852,2.487-6.997,6.831-7.014c1.627,0,3.042,0.542,4.054,1.093c1.007,0.551,1.575,1.088,1.58,1.084l0.449,0.416l2.46-3.811
				l-0.269-0.293c-0.048-0.055-2.92-3.155-8.46-3.158c-6.717,0.011-11.764,5.121-11.775,11.745
				c0.011,6.696,4.871,11.918,11.837,11.928c5.817-0.008,8.954-3.679,8.998-3.729l0.263-0.31l-2.706-3.699L85.012,58.679z
				 M97.598,42.657h-5.009V65.59h14.478v-4.455h-9.469V42.657z M111.16,65.588h5.01v-22.93h-5.01V65.588z M136.582,55.82
				c0,0.302,0.011,0.64,0.027,0.985c-0.242-0.442-0.501-0.889-0.749-1.27l-8.451-12.879h-4.772v22.931h5.008V52.457
				c0-0.301-0.011-0.644-0.03-0.989c0.244,0.444,0.503,0.891,0.754,1.271l8.449,12.85h4.742V42.657h-4.978V55.82z M148.028,65.588
				h5.008V42.657h-5.008V65.588z M176.383,58.218l-0.422,0.461c-0.002,0.002-0.59,0.641-1.648,1.303
				c-1.062,0.659-2.561,1.311-4.33,1.311c-4.255-0.008-6.837-3.377-6.858-7.324c0.025-3.851,2.485-6.994,6.829-7.011
				c1.626,0,3.041,0.54,4.052,1.091c1.01,0.551,1.578,1.09,1.582,1.084l0.452,0.416l2.457-3.811l-0.268-0.291
				c-0.05-0.057-2.92-3.158-8.462-3.161c-6.718,0.014-11.762,5.124-11.775,11.746c0.014,6.698,4.872,11.918,11.838,11.928
				c5.815-0.006,8.951-3.679,8.997-3.729l0.266-0.31L176.383,58.218z"></path>
			<polygon fill="#868685" points="70.02,2.651 67.616,2.651 67.616,1.796 73.407,1.796 73.407,2.651 71.003,2.651 71.003,8.808 
				70.02,8.808 	"></polygon>
			<polygon fill="#868685" points="74.902,1.796 75.886,1.796 75.886,4.874 79.521,4.874 79.521,1.796 80.505,1.796 80.505,8.809 
				79.521,8.809 79.521,5.729 75.886,5.729 75.886,8.809 74.902,8.809 	"></polygon>
			<polygon fill="#868685" points="82.904,1.796 86.976,1.796 86.976,2.651 83.886,2.651 83.886,4.844 86.4,4.844 86.4,5.7 
				83.886,5.7 83.886,7.955 87.144,7.955 87.144,8.809 82.904,8.809 	"></polygon>
			<path fill-rule="evenodd" clip-rule="evenodd" fill="#3BA935" d="M17.549,31.824c0-4.322,3.502-7.827,7.826-7.827
				c4.323,0,7.827,3.504,7.827,7.827c0,4.323-3.504,7.827-7.827,7.827C21.051,39.65,17.549,36.146,17.549,31.824"></path>
			<path fill-rule="evenodd" clip-rule="evenodd" fill="#3BA935" d="M10.83,55.722c0-1.276,1.034-2.31,2.31-2.31
				s2.309,1.033,2.309,2.31c0,1.273-1.033,2.307-2.309,2.307S10.83,56.995,10.83,55.722"></path>
			<path fill-rule="evenodd" clip-rule="evenodd" fill="#3BA935" d="M4.324,77.18c0-2.027,1.644-3.671,3.67-3.671
				c2.028,0,3.67,1.644,3.67,3.671c0,2.028-1.643,3.671-3.67,3.671C5.967,80.851,4.324,79.208,4.324,77.18"></path>
			<path fill-rule="evenodd" clip-rule="evenodd" fill="#3BA935" d="M29.809,6.695c0-2.643,2.144-4.788,4.789-4.788
				c2.643,0,4.785,2.146,4.785,4.788c0,2.644-2.143,4.787-4.785,4.787C31.953,11.482,29.809,9.339,29.809,6.695"></path>
			<path fill-rule="evenodd" clip-rule="evenodd" fill="#3BA935" d="M28.078,63.194c0-4.23,3.43-7.66,7.661-7.66
				c4.23,0,7.659,3.43,7.659,7.66c0,4.232-3.428,7.66-7.659,7.66C31.508,70.854,28.078,67.427,28.078,63.194"></path>
			<path fill-rule="evenodd" clip-rule="evenodd" fill="#3BA935" d="M47.387,20.748c0-3.614,2.929-6.543,6.544-6.543
				c3.613,0,6.542,2.93,6.542,6.543c0,3.612-2.929,6.543-6.542,6.543C50.316,27.291,47.387,24.36,47.387,20.748"></path>
			<path fill-rule="evenodd" clip-rule="evenodd" fill="#299BD7" d="M14.995,50.109c0-4.584,3.713-8.298,8.297-8.298
				c4.583,0,8.299,3.714,8.299,8.298c0,4.582-3.716,8.298-8.299,8.298C18.708,58.407,14.995,54.691,14.995,50.109"></path>
			<path fill-rule="evenodd" clip-rule="evenodd" fill="#299BD7" d="M29.675,20.426c0-4.23,3.43-7.658,7.66-7.658
				c4.232,0,7.661,3.427,7.661,7.658c0,4.232-3.429,7.661-7.661,7.661C33.105,28.087,29.675,24.659,29.675,20.426"></path>
			<path fill-rule="evenodd" clip-rule="evenodd" fill="#299BD7" d="M14.28,81.005c0-1.275,1.036-2.311,2.311-2.311
				c1.276,0,2.309,1.035,2.309,2.311s-1.032,2.309-2.309,2.309C15.316,83.313,14.28,82.28,14.28,81.005"></path>
			<path fill-rule="evenodd" clip-rule="evenodd" fill="#299BD7" d="M6.073,26.334c0-2.915,2.363-5.277,5.279-5.277
				c2.917,0,5.28,2.363,5.28,5.277c0,2.917-2.363,5.282-5.28,5.282C8.436,31.616,6.073,29.252,6.073,26.334"></path>
			<path fill-rule="evenodd" clip-rule="evenodd" fill="#299BD7" d="M45.313,60.961c0-2.556,2.073-4.629,4.629-4.629
				c2.555,0,4.628,2.073,4.628,4.629c0,2.557-2.074,4.629-4.628,4.629C47.386,65.59,45.313,63.518,45.313,60.961"></path>
			<path fill-rule="evenodd" clip-rule="evenodd" fill="#299BD7" d="M0.5,67.599c0-2.415,1.96-4.375,4.375-4.375
				c2.416,0,4.375,1.96,4.375,4.375c0,2.416-1.958,4.374-4.375,4.374C2.46,71.973,0.5,70.015,0.5,67.599"></path>
			<path fill-rule="evenodd" clip-rule="evenodd" fill="#E3041B" d="M31.477,42.233c0-7.521,6.098-13.62,13.621-13.62
				c7.523,0,13.621,6.099,13.621,13.62c0,7.522-6.098,13.623-13.621,13.623C37.575,55.855,31.477,49.755,31.477,42.233"></path>
			<path fill-rule="evenodd" clip-rule="evenodd" fill="#E3041B" d="M24.006,12.449c0-1.587,1.285-2.873,2.873-2.873
				c1.587,0,2.872,1.286,2.872,2.873c0,1.588-1.285,2.874-2.872,2.874C25.291,15.322,24.006,14.037,24.006,12.449"></path>
			<path fill-rule="evenodd" clip-rule="evenodd" fill="#E3041B" d="M6.442,38.39c0-3.087,2.502-5.59,5.591-5.59
				c3.087,0,5.592,2.503,5.592,5.59c0,3.088-2.505,5.591-5.592,5.591C8.944,43.98,6.442,41.478,6.442,38.39"></path>
			<path fill-rule="evenodd" clip-rule="evenodd" fill="#E3041B" d="M41.714,8.068c0-3.525,2.857-6.382,6.383-6.382
				c3.525,0,6.384,2.857,6.384,6.382c0,3.527-2.859,6.385-6.384,6.385C44.572,14.454,41.714,11.596,41.714,8.068"></path>
			<path fill-rule="evenodd" clip-rule="evenodd" fill="#E3041B" d="M10.303,68.724c0-4.589,3.719-8.309,8.31-8.309
				c4.588,0,8.307,3.72,8.307,8.309c0,4.59-3.719,8.31-8.307,8.31C14.022,77.033,10.303,73.313,10.303,68.724"></path>
		</g>
		</svg>